<?xml version="1.0" encoding="UTF-8"?>
<svg id="Capa_1" data-name="Capa 1" xmlns="http://www.w3.org/2000/svg" xmlns:xlink="http://www.w3.org/1999/xlink" viewBox="0 0 160 160">
  <defs>
    <style>
      .cls-1, .cls-2, .cls-3 {
        fill: none;
      }

      .cls-4 {
        clip-path: url(#clippath-1);
      }

      .cls-2 {
        stroke-width: .15px;
      }

      .cls-2, .cls-3 {
        stroke: #000;
        stroke-miterlimit: 10;
      }

      .cls-3 {
        stroke-width: 1.7px;
      }

      .cls-5 {
        clip-path: url(#clippath);
      }
    </style>
    <clipPath id="clippath">
      <rect class="cls-1" width="160" height="160"/>
    </clipPath>
    <clipPath id="clippath-1">
      <rect class="cls-1" width="160" height="160"/>
    </clipPath>
  </defs>
  <g class="cls-5">
    <path d="M92.86,70.05c-.32.6-.74,1.14-1.23,1.61,2.73,2.58,4.39,6.36,4.39,10.93,0,8.68-5.97,14.65-13.96,14.65s-13.96-5.97-13.96-14.65c0-4.56,1.67-8.34,4.4-10.92-.58-.38-1.06-.85-1.43-1.4-3.13,2.94-5.04,7.23-5.04,12.32,0,9.68,6.85,16.54,16.03,16.54s16.04-6.85,16.04-16.54c0-5.21-1.98-9.59-5.23-12.53"/>
  </g>
  <path d="M29.01,52.55h9.86c13.59,0,19.72,9.32,19.72,23.15s-6.13,23.43-19.72,23.43h-9.86v-46.58ZM38.6,97.15c12.53,0,17.72-9.17,17.72-21.45s-5.2-21.17-17.72-21.17h-7.46v42.63h7.46Z"/>
  <path d="M118.64,53.31h1.94l16.38,45.81h-2.36l-5.71-16.38h-18.62l-5.79,16.38h-2.22l16.38-45.81ZM128.22,80.8l-3.19-9.16c-1.94-5.55-3.61-10.27-5.28-15.96h-.28c-1.67,5.69-3.33,10.41-5.28,15.96l-3.24,9.16h17.26Z"/>
  <g class="cls-4">
    <path class="cls-2" d="M109.34,82.74h20.34v-1.94h-20.34v1.94ZM102.26,99.12h2.22l9.72-27.49c1.94-5.55,3.61-10.27,5.28-15.96h.28c1.67,5.69,3.33,10.41,5.28,15.96l9.58,27.49h2.36l-16.38-45.81h-1.94l-16.38,45.81Z"/>
    <polygon class="cls-3" points="63.07 65.21 81.58 54.13 101.13 63.65 82.98 77.99 63.07 65.21"/>
    <polyline class="cls-3" points="94.34 64.61 99.78 67.66 99.78 75.57"/>
  </g>
</svg>