<?xml version="1.0" encoding="UTF-8"?>
<svg id="Capa_1" data-name="Capa 1" xmlns="http://www.w3.org/2000/svg" viewBox="0 0 94.78 41.03">
  <defs>
    <style>
      .cls-1 {
        fill: #4d80ff;
      }

      .cls-2 {
        fill: none;
        stroke: #9755ff;
        stroke-width: 1.7px;
      }

      .cls-2, .cls-3 {
        stroke-miterlimit: 10;
      }

      .cls-4 {
        fill: #9755ff;
      }

      .cls-3 {
        fill: #ff5050;
        stroke: #ff5050;
        stroke-width: .15px;
      }
    </style>
  </defs>
  <g>
    <path class="cls-4" d="M56.15,15.39c-.28.53-.65,1.01-1.08,1.41,2.4,2.27,3.86,5.59,3.86,9.61,0,7.63-5.25,12.88-12.28,12.88s-12.28-5.25-12.28-12.88c0-4.01,1.47-7.33,3.87-9.6-.51-.33-.93-.75-1.26-1.24-2.75,2.59-4.43,6.36-4.43,10.83,0,8.52,6.03,14.54,14.1,14.54s14.1-6.03,14.1-14.54c0-4.58-1.74-8.43-4.6-11.02Z"/>
    <path class="cls-1" d="M0,0h8.67c11.96,0,17.35,8.19,17.35,20.35s-5.39,20.6-17.35,20.6H0V0ZM8.44,39.22c11.02,0,15.59-8.07,15.59-18.87S19.46,1.74,8.44,1.74H1.88v37.48h6.56Z"/>
    <path class="cls-3" d="M78.56.67h1.71l14.4,40.28h-2.08l-8.42-24.17c-1.71-4.88-3.17-9.03-4.64-14.04h-.24c-1.46,5-2.93,9.16-4.64,14.04l-8.54,24.17h-1.95L78.56.67ZM70.39,24.84h17.88v1.71h-17.88v-1.71Z"/>
  </g>
  <polygon class="cls-2" points="29.96 11.14 46.23 1.39 63.42 9.77 47.46 22.37 29.96 11.14"/>
  <polyline class="cls-2" points="57.45 10.61 62.24 13.29 62.24 20.24"/>
</svg>