<?xml version="1.0" encoding="UTF-8"?>
<svg xmlns="http://www.w3.org/2000/svg" viewBox="0 0 160 160">
  <defs>
    <style>
      .cls-1, .cls-2 {
        fill: #fff;
      }

      .cls-2 {
        stroke-width: .15px;
      }

      .cls-2, .cls-3 {
        stroke: #fff;
        stroke-miterlimit: 10;
      }

      .cls-3 {
        fill: none;
        stroke-width: 1.7px;
      }
    </style>
  </defs>
  <g id="Capa_1" data-name="Capa 1">
    <rect width="160" height="160"/>
  </g>
  <g id="Capa_2" data-name="Capa 2">
    <path class="cls-1" d="M91.63,71.25c-.28.53-.65,1.01-1.08,1.41,2.4,2.27,3.86,5.59,3.86,9.61,0,7.63-5.25,12.88-12.28,12.88s-12.28-5.25-12.28-12.88c0-4.01,1.47-7.33,3.87-9.6-.51-.33-.93-.75-1.26-1.24-2.75,2.59-4.43,6.36-4.43,10.83,0,8.52,6.03,14.54,14.1,14.54s14.1-6.03,14.1-14.54c0-4.58-1.74-8.43-4.6-11.02Z"/>
    <path class="cls-1" d="M35.48,55.86h8.67c11.96,0,17.35,8.19,17.35,20.35s-5.39,20.6-17.35,20.6h-8.67v-40.96ZM43.92,95.08c11.02,0,15.59-8.07,15.59-18.87s-4.57-18.62-15.59-18.62h-6.56v37.48h6.56Z"/>
    <path class="cls-2" d="M113.65,56.53h1.71l14.4,40.28h-2.08l-8.42-24.17c-1.71-4.88-3.17-9.03-4.64-14.04h-.24c-1.46,5-2.93,9.16-4.64,14.04l-8.54,24.17h-1.95l14.4-40.28ZM105.47,80.7h17.88v1.71h-17.88v-1.71Z"/>
    <polygon class="cls-3" points="65.44 67 81.71 57.25 98.91 65.63 82.94 78.23 65.44 67"/>
    <polyline class="cls-3" points="92.93 66.47 97.72 69.15 97.72 76.1"/>
  </g>
</svg>