<?xml version="1.0" encoding="UTF-8"?>
<svg id="Capa_1" data-name="Capa 1" xmlns="http://www.w3.org/2000/svg" viewBox="0 0 160 153.87">
  <defs>
    <style>
      .cls-1 {
        fill: #4d80ff;
      }

      .cls-2, .cls-3, .cls-4, .cls-5, .cls-6, .cls-7 {
        stroke-miterlimit: 10;
      }

      .cls-2, .cls-4, .cls-5 {
        fill: none;
        stroke-width: 1.7px;
      }

      .cls-2, .cls-6 {
        stroke: #000;
      }

      .cls-8, .cls-3 {
        fill: #fff;
      }

      .cls-3, .cls-5 {
        stroke: #fff;
      }

      .cls-3, .cls-6, .cls-7 {
        stroke-width: .15px;
      }

      .cls-4 {
        stroke: #9755ff;
      }

      .cls-9 {
        fill: #9755ff;
      }

      .cls-7 {
        fill: #ff5050;
        stroke: #ff5050;
      }
    </style>
  </defs>
  <g>
    <g>
      <path class="cls-9" d="M87.92,68.09c-.28.53-.65,1.01-1.08,1.41,2.4,2.27,3.86,5.59,3.86,9.61,0,7.63-5.25,12.88-12.28,12.88s-12.28-5.25-12.28-12.88c0-4.01,1.47-7.33,3.87-9.6-.51-.33-.93-.75-1.26-1.24-2.75,2.59-4.43,6.36-4.43,10.83,0,8.52,6.03,14.54,14.1,14.54s14.1-6.03,14.1-14.54c0-4.58-1.74-8.43-4.6-11.02Z"/>
      <path class="cls-1" d="M31.77,52.7h8.67c11.96,0,17.35,8.19,17.35,20.35s-5.39,20.6-17.35,20.6h-8.67v-40.96ZM40.21,91.92c11.02,0,15.59-8.07,15.59-18.87s-4.57-18.62-15.59-18.62h-6.56v37.48h6.56Z"/>
      <path class="cls-7" d="M110.34,53.37h1.71l14.4,40.28h-2.08l-8.42-24.17c-1.71-4.88-3.17-9.03-4.64-14.04h-.24c-1.46,5-2.93,9.16-4.64,14.04l-8.54,24.17h-1.95l14.4-40.28ZM102.16,77.54h17.88v1.71h-17.88v-1.71Z"/>
    </g>
    <polygon class="cls-4" points="61.73 63.83 78 54.09 95.2 62.46 79.23 75.07 61.73 63.83"/>
    <polyline class="cls-4" points="89.22 63.3 94.01 65.98 94.01 72.94"/>
  </g>
  <g>
    <g>
      <path d="M87.75,15.39c-.28.53-.65,1.01-1.08,1.41,2.4,2.27,3.86,5.59,3.86,9.61,0,7.63-5.25,12.88-12.28,12.88s-12.28-5.25-12.28-12.88c0-4.01,1.47-7.33,3.87-9.6-.51-.33-.93-.75-1.26-1.24-2.75,2.59-4.43,6.36-4.43,10.83,0,8.52,6.03,14.54,14.1,14.54s14.1-6.03,14.1-14.54c0-4.58-1.74-8.43-4.6-11.02Z"/>
      <path d="M31.6,0h8.67c11.96,0,17.35,8.19,17.35,20.35s-5.39,20.6-17.35,20.6h-8.67V0ZM40.04,39.22c11.02,0,15.59-8.07,15.59-18.87S51.06,1.74,40.04,1.74h-6.56v37.48h6.56Z"/>
      <path class="cls-6" d="M110.42.67h1.71l14.4,40.28h-2.08l-8.42-24.17c-1.71-4.88-3.17-9.03-4.64-14.04h-.24c-1.46,5-2.93,9.16-4.64,14.04l-8.54,24.17h-1.95L110.42.67ZM102.25,24.84h17.88v1.71h-17.88v-1.71Z"/>
    </g>
    <polygon class="cls-2" points="61.56 11.14 77.83 1.39 95.03 9.77 79.06 22.37 61.56 11.14"/>
    <polyline class="cls-2" points="89.05 10.61 93.84 13.29 93.84 20.24"/>
  </g>
  <rect y="97.93" width="160" height="55.94"/>
  <g>
    <g>
      <path class="cls-8" d="M88.93,122.17c-.28.53-.65,1.01-1.08,1.41,2.4,2.27,3.86,5.59,3.86,9.61,0,7.63-5.25,12.88-12.28,12.88s-12.28-5.25-12.28-12.88c0-4.01,1.47-7.33,3.87-9.6-.51-.33-.93-.75-1.26-1.24-2.75,2.59-4.43,6.36-4.43,10.83,0,8.52,6.03,14.54,14.1,14.54s14.1-6.03,14.1-14.54c0-4.58-1.74-8.43-4.6-11.02Z"/>
      <path class="cls-8" d="M32.78,106.77h8.67c11.96,0,17.35,8.19,17.35,20.35s-5.39,20.6-17.35,20.6h-8.67v-40.96ZM41.22,145.99c11.02,0,15.59-8.07,15.59-18.87s-4.57-18.62-15.59-18.62h-6.56v37.48h6.56Z"/>
      <path class="cls-3" d="M110.95,107.45h1.71l14.4,40.28h-2.08l-8.42-24.17c-1.71-4.88-3.17-9.03-4.64-14.04h-.24c-1.46,5-2.93,9.16-4.64,14.04l-8.54,24.17h-1.95l14.4-40.28ZM102.77,131.62h17.88v1.71h-17.88v-1.71Z"/>
    </g>
    <polygon class="cls-5" points="62.74 117.91 79.01 108.16 96.2 116.54 80.24 129.14 62.74 117.91"/>
    <polyline class="cls-5" points="90.23 117.38 95.02 120.06 95.02 127.02"/>
  </g>
</svg>